<svg width="27" height="44" viewBox="0 0 27 44" fill="none" xmlns="http://www.w3.org/2000/svg">
<mask id="mask0_163_784" style="mask-type:alpha" maskUnits="userSpaceOnUse" x="0" y="0" width="27" height="44">
<path d="M8.5797 21.9563C8.79899 22.6142 9.15533 23.0802 9.64873 23.3543C10.1421 23.5736 10.8274 23.6833 11.7046 23.6833C12.5817 23.6833 13.4863 23.3543 14.4183 22.6964C15.3503 22.0386 16.0904 21.3807 16.6386 20.7228L18.201 9.12792C17.3239 8.03147 16.5838 7.29137 15.9807 6.90761C15.3777 6.52386 14.665 6.33198 13.8426 6.33198C12.0335 6.33198 10.7452 7.09949 9.97766 8.63452C9.26497 10.1147 8.74416 12.335 8.41523 15.2954C7.92183 18.1462 7.97665 20.3665 8.5797 21.9563ZM2.49442 36.1827C4.96142 37.0051 7.34619 37.4162 9.64873 37.4162C11.1838 37.4162 12.2528 37.197 12.8558 36.7584C14.0619 35.7716 14.7746 34.2091 14.9939 32.0711L15.8985 26.3147H15.8162C14.9391 27.1919 13.7604 28.069 12.2802 28.9462C10.8548 29.8234 9.37462 30.2619 7.83959 30.2619C6.35939 30.2619 5.07107 29.9878 3.97462 29.4396C2.93299 28.8366 2.08325 27.932 1.42538 26.7259C0 24.1492 -0.356345 20.5858 0.356345 16.0355C1.06904 10.8822 2.63147 6.8802 5.04365 4.02944C7.29137 1.34315 9.84061 0 12.6914 0C14.336 0 15.6518 0.411167 16.6386 1.2335C17.6802 2.00102 18.6396 3.04264 19.5168 4.35838L20.5858 0.411167H27L22.6416 31.9066C22.0934 35.7442 20.8325 38.5675 18.8589 40.3767C16.8853 42.2406 14.0071 43.1726 10.2244 43.1726C8.14112 43.1726 6.27716 42.9533 4.63249 42.5147C3.04264 42.0761 1.80914 41.7198 0.93198 41.4457L2.49442 36.1827Z" fill="#008CFF"/>
</mask>
<g mask="url(#mask0_163_784)">
<path d="M8.5797 21.9563C8.79899 22.6142 9.15533 23.0802 9.64873 23.3543C10.1421 23.5736 10.8274 23.6833 11.7046 23.6833C12.5817 23.6833 13.4863 23.3543 14.4183 22.6964C15.3503 22.0386 16.0904 21.3807 16.6386 20.7228L18.201 9.12792C17.3239 8.03147 16.5838 7.29137 15.9807 6.90761C15.3777 6.52386 14.665 6.33198 13.8426 6.33198C12.0335 6.33198 10.7452 7.09949 9.97766 8.63452C9.26497 10.1147 8.74416 12.335 8.41523 15.2954C7.92183 18.1462 7.97665 20.3665 8.5797 21.9563ZM2.49442 36.1827C4.96142 37.0051 7.34619 37.4162 9.64873 37.4162C11.1838 37.4162 12.2528 37.197 12.8558 36.7584C14.0619 35.7716 14.7746 34.2091 14.9939 32.0711L15.8985 26.3147H15.8162C14.9391 27.1919 13.7604 28.069 12.2802 28.9462C10.8548 29.8234 9.37462 30.2619 7.83959 30.2619C6.35939 30.2619 5.07107 29.9878 3.97462 29.4396C2.93299 28.8366 2.08325 27.932 1.42538 26.7259C0 24.1492 -0.356345 20.5858 0.356345 16.0355C1.06904 10.8822 2.63147 6.8802 5.04365 4.02944C7.29137 1.34315 9.84061 0 12.6914 0C14.336 0 15.6518 0.411167 16.6386 1.2335C17.6802 2.00102 18.6396 3.04264 19.5168 4.35838L20.5858 0.411167H27L22.6416 31.9066C22.0934 35.7442 20.8325 38.5675 18.8589 40.3767C16.8853 42.2406 14.0071 43.1726 10.2244 43.1726C8.14112 43.1726 6.27716 42.9533 4.63249 42.5147C3.04264 42.0761 1.80914 41.7198 0.93198 41.4457L2.49442 36.1827Z" fill="#008CFF"/>
<rect width="32.3652" height="3.77913" transform="matrix(0.93358 -0.358368 -0.358368 -0.93358 -0.959473 23.7527)" fill="white"/>
</g>
</svg>
